# xmcd
#
# Track frame offsets:
# 150
# 12580
# 23789
# 34992
# 45686
# 58407
# 70692
# 81784
# 93788
# 105689
# 118250
# 132029
# 143987
# 157713
# 171874
# 184939
# 197138
# 210296
# 222018
# 234425
# 245880
# 258957
# 272260
# 283616
# 296926
# 310173
# 323513
#
# Disc length: 4467 seconds
#
#
# Revision: 0
# Processed by: cddbd v1.5.2PL0 Copyright (c) Steve Scherf et al.
# Submitted via: FreeRIP 2.944 
#
DISCID=8711711b
DTITLE=Various Artist - Rare West Coast Jump 'n' Jive 1947
DYEAR=1900
DGENRE=Jump Blues
TTITLE0=Hey Little Brownie
TTITLE1=Should Have Rationed Myself
TTITLE2=Charlie The Boggie Man
TTITLE3=Bumps Boogie
TTITLE4=Goodbye Doretha
TTITLE5=That Early Morning Boogie
TTITLE6=Chitlin' Ball
TTITLE7=Don't Let Fletcher Getcha
TTITLE8=Goin' Back To Texas
TTITLE9=Baby, What's The Matter With You
TTITLE10=Empire Boogie
TTITLE11=Rhapsody Boogie
TTITLE12=Melody In F Boogie
TTITLE13=Medium Fast Boogie
TTITLE14=Workingman's Blues
TTITLE15=Lenox Avenue Boogie
TTITLE16=Big Leg Mama Blues
TTITLE17=Mobile Boogie
TTITLE18=Between Midnight And Day
TTITLE19=Eviction Blues
TTITLE20=52nd Street Jump
TTITLE21=So Many Women
TTITLE22=10 O'Clock Stomp
TTITLE23=Gotta Find My Baby
TTITLE24=Tornado
TTITLE25=You're My Baby Tonight
TTITLE26="33"
EXTD=
EXTT0=
EXTT1=
EXTT2=
EXTT3=
EXTT4=
EXTT5=
EXTT6=
EXTT7=
EXTT8=
EXTT9=
EXTT10=
EXTT11=
EXTT12=
EXTT13=
EXTT14=
EXTT15=
EXTT16=
EXTT17=
EXTT18=
EXTT19=
EXTT20=
EXTT21=
EXTT22=
EXTT23=
EXTT24=
EXTT25=
EXTT26=
PLAYORDER=
